<svg width="19" height="19" viewBox="0 0 19 19" fill="none" xmlns="http://www.w3.org/2000/svg">
<path fill-rule="evenodd" clip-rule="evenodd" d="M9.5 0C4.25341 0 0 4.25341 0 9.5C0 14.7466 4.25341 19 9.5 19C14.7466 19 19 14.7466 19 9.5C19 4.25341 14.7466 0 9.5 0ZM13.6178 7.89364C13.6936 7.80696 13.7514 7.706 13.7876 7.59669C13.8238 7.48738 13.8378 7.37193 13.8288 7.25712C13.8197 7.14232 13.7878 7.03049 13.7349 6.9282C13.682 6.82592 13.6092 6.73525 13.5207 6.66152C13.4322 6.5878 13.3299 6.53251 13.2198 6.49892C13.1096 6.46532 12.9939 6.4541 12.8793 6.4659C12.7648 6.4777 12.6537 6.51229 12.5527 6.56764C12.4517 6.62299 12.3629 6.69797 12.2913 6.78818L8.57764 11.2437L6.65605 9.32123C6.49316 9.16391 6.27501 9.07686 6.04856 9.07883C5.82212 9.0808 5.60551 9.17162 5.44538 9.33175C5.28526 9.49187 5.19443 9.70848 5.19246 9.93493C5.1905 10.1614 5.27755 10.3795 5.43486 10.5424L8.02577 13.1333C8.11063 13.2181 8.21223 13.2843 8.32409 13.3277C8.43594 13.3711 8.55561 13.3906 8.67546 13.3852C8.79531 13.3798 8.91271 13.3494 9.02017 13.2961C9.12764 13.2427 9.22282 13.1676 9.29964 13.0755L13.6178 7.89364Z" fill="#098041"/>
</svg>
