<svg width="119" height="38" viewBox="0 0 119 38" fill="none" xmlns="http://www.w3.org/2000/svg">
<path d="M14.4436 16.2325C14.3391 16.424 14.178 16.5198 13.9604 16.5198C13.8298 16.5198 13.6818 16.4719 13.5164 16.3761C13.3509 16.2803 13.1464 16.1759 12.9026 16.0627C12.6675 15.9408 12.3846 15.832 12.0537 15.7362C11.7229 15.6317 11.3311 15.5795 10.8784 15.5795C10.4866 15.5795 10.134 15.6317 9.82058 15.7362C9.50715 15.832 9.23726 15.9669 9.0109 16.141C8.79325 16.3152 8.62347 16.5198 8.50159 16.7548C8.38841 16.9812 8.33182 17.2293 8.33182 17.4992C8.33182 17.8388 8.42758 18.1217 8.61912 18.3481C8.81936 18.5744 9.08055 18.7703 9.40268 18.9357C9.72481 19.1012 10.0905 19.2492 10.4997 19.3798C10.9089 19.5016 11.3268 19.6366 11.7534 19.7846C12.1887 19.9239 12.6109 20.0806 13.0201 20.2547C13.4293 20.4289 13.795 20.6465 14.1171 20.9077C14.4392 21.1689 14.6961 21.491 14.8876 21.8741C15.0878 22.2485 15.188 22.7012 15.188 23.2323C15.188 23.8417 15.0791 24.4076 14.8615 24.93C14.6438 25.4436 14.3217 25.892 13.8951 26.2751C13.4685 26.6494 12.9461 26.9455 12.328 27.1631C11.7098 27.3808 10.9959 27.4896 10.1862 27.4896C9.26338 27.4896 8.42758 27.3416 7.67885 27.0456C6.93012 26.7409 6.29456 26.3534 5.77219 25.8833L6.32068 24.9953C6.39033 24.8821 6.47304 24.795 6.56881 24.7341C6.66458 24.6731 6.78646 24.6427 6.93447 24.6427C7.09118 24.6427 7.2566 24.7036 7.43072 24.8255C7.60485 24.9474 7.8138 25.0823 8.05757 25.2303C8.31005 25.3783 8.61477 25.5133 8.97172 25.6352C9.32868 25.7571 9.77269 25.818 10.3038 25.818C10.7565 25.818 11.1526 25.7614 11.4922 25.6482C11.8317 25.5263 12.1147 25.3653 12.341 25.165C12.5674 24.9648 12.7328 24.7341 12.8373 24.4729C12.9505 24.2117 13.0071 23.9331 13.0071 23.6371C13.0071 23.2714 12.9069 22.9711 12.7067 22.736C12.5152 22.4922 12.2583 22.2876 11.9362 22.1222C11.6141 21.9481 11.244 21.8001 10.8261 21.6782C10.417 21.5476 9.9947 21.4127 9.55939 21.2734C9.13279 21.1341 8.71054 20.9773 8.29264 20.8032C7.88345 20.6204 7.51779 20.394 7.19566 20.1241C6.87353 19.8542 6.61234 19.5234 6.4121 19.1316C6.22056 18.7311 6.12479 18.2479 6.12479 17.682C6.12479 17.1771 6.22927 16.6939 6.43822 16.2325C6.64716 15.7623 6.95188 15.3531 7.35237 15.0049C7.75285 14.6479 8.24475 14.365 8.82807 14.156C9.41139 13.9471 10.0774 13.8426 10.8261 13.8426C11.6968 13.8426 12.476 13.9819 13.1638 14.2605C13.8603 14.5304 14.461 14.9048 14.9659 15.3836L14.4436 16.2325ZM25.2075 21.3256C24.1366 21.3604 23.2225 21.4475 22.4651 21.5868C21.7163 21.7174 21.1025 21.8915 20.6237 22.1092C20.1536 22.3268 19.8097 22.5836 19.592 22.8797C19.3831 23.1757 19.2786 23.5065 19.2786 23.8722C19.2786 24.2204 19.3352 24.5208 19.4484 24.7733C19.5615 25.0257 19.7139 25.2347 19.9054 25.4001C20.1057 25.5568 20.3364 25.6743 20.5976 25.7527C20.8675 25.8223 21.1548 25.8572 21.4595 25.8572C21.8687 25.8572 22.243 25.818 22.5826 25.7396C22.9221 25.6526 23.2399 25.5307 23.5359 25.374C23.8406 25.2173 24.1279 25.0301 24.3978 24.8124C24.6764 24.5948 24.9463 24.3466 25.2075 24.068V21.3256ZM17.6984 15.919C18.4297 15.2138 19.2176 14.6871 20.0621 14.3389C20.9066 13.9906 21.8426 13.8165 22.8699 13.8165C23.6099 13.8165 24.2672 13.9384 24.8419 14.1821C25.4165 14.4259 25.8997 14.7655 26.2914 15.2008C26.6832 15.6361 26.9792 16.1628 27.1795 16.781C27.3797 17.3991 27.4798 18.0782 27.4798 18.8182V27.2806H26.4481C26.2218 27.2806 26.0477 27.2458 25.9258 27.1762C25.8039 27.0978 25.7081 26.9498 25.6385 26.7321L25.3773 25.4785C25.029 25.8006 24.6895 26.0879 24.3587 26.3404C24.0278 26.5841 23.6796 26.7931 23.3139 26.9672C22.9482 27.1326 22.5565 27.2589 22.1386 27.3459C21.7294 27.4417 21.2723 27.4896 20.7673 27.4896C20.2537 27.4896 19.7705 27.4199 19.3178 27.2806C18.865 27.1326 18.4689 26.915 18.1294 26.6277C17.7985 26.3404 17.533 25.9791 17.3327 25.5438C17.1412 25.0997 17.0454 24.5774 17.0454 23.9766C17.0454 23.4543 17.1891 22.9537 17.4764 22.4748C17.7637 21.9873 18.2295 21.5563 18.8737 21.1819C19.518 20.8076 20.3582 20.5029 21.3942 20.2678C22.4302 20.024 23.7013 19.8847 25.2075 19.8499V18.8182C25.2075 17.7909 24.9855 17.016 24.5415 16.4936C24.0975 15.9626 23.4489 15.697 22.5956 15.697C22.021 15.697 21.5378 15.771 21.1461 15.919C20.763 16.0583 20.4278 16.2194 20.1405 16.4022C19.8619 16.5764 19.6181 16.7374 19.4092 16.8854C19.2089 17.0247 19.0087 17.0944 18.8084 17.0944C18.6517 17.0944 18.5168 17.0552 18.4036 16.9768C18.2904 16.8898 18.1947 16.7853 18.1163 16.6634L17.6984 15.919ZM33.3584 15.8146C33.9243 15.2138 34.5511 14.735 35.2389 14.378C35.9267 14.0211 36.719 13.8426 37.6157 13.8426C38.3383 13.8426 38.9739 13.9645 39.5224 14.2083C40.0796 14.4433 40.541 14.7829 40.9066 15.2269C41.281 15.6622 41.564 16.1889 41.7555 16.8071C41.947 17.4252 42.0428 18.1086 42.0428 18.8574V27.2806H39.7052V18.8574C39.7052 17.8562 39.4745 17.0813 39.013 16.5328C38.5603 15.9756 37.8682 15.697 36.9366 15.697C36.2488 15.697 35.6046 15.8624 35.0038 16.1933C34.4118 16.5241 33.8633 16.9725 33.3584 17.5384V27.2806H31.0207V8.04427H33.3584V15.8146ZM48.0401 14.0516V27.2806H45.7155V14.0516H48.0401ZM48.5363 9.89869C48.5363 10.1251 48.4885 10.3384 48.3927 10.5386C48.3056 10.7301 48.1837 10.9043 48.027 11.061C47.879 11.209 47.7005 11.3265 47.4916 11.4136C47.2914 11.5006 47.0781 11.5442 46.8517 11.5442C46.6253 11.5442 46.412 11.5006 46.2118 11.4136C46.0202 11.3265 45.8505 11.209 45.7025 11.061C45.5545 10.9043 45.4369 10.7301 45.3499 10.5386C45.2628 10.3384 45.2193 10.1251 45.2193 9.89869C45.2193 9.67233 45.2628 9.45903 45.3499 9.25879C45.4369 9.04984 45.5545 8.87136 45.7025 8.72335C45.8505 8.56664 46.0202 8.44476 46.2118 8.35769C46.412 8.27063 46.6253 8.2271 46.8517 8.2271C47.0781 8.2271 47.2914 8.27063 47.4916 8.35769C47.7005 8.44476 47.879 8.56664 48.027 8.72335C48.1837 8.87136 48.3056 9.04984 48.3927 9.25879C48.4885 9.45903 48.5363 9.67233 48.5363 9.89869ZM54.0535 15.9713C54.3408 15.6491 54.6455 15.3575 54.9676 15.0963C55.2898 14.8351 55.6293 14.6131 55.9863 14.4303C56.3519 14.2387 56.735 14.0951 57.1355 13.9993C57.5447 13.8948 57.9843 13.8426 58.4545 13.8426C59.1771 13.8426 59.8127 13.9645 60.3611 14.2083C60.9183 14.4433 61.3798 14.7829 61.7454 15.2269C62.1198 15.6622 62.4027 16.1889 62.5943 16.8071C62.7858 17.4252 62.8816 18.1086 62.8816 18.8574V27.2806H60.544V18.8574C60.544 17.8562 60.3133 17.0813 59.8518 16.5328C59.3991 15.9756 58.707 15.697 57.7754 15.697C57.0876 15.697 56.4433 15.8624 55.8426 16.1933C55.2506 16.5241 54.7021 16.9725 54.1971 17.5384V27.2806H51.8595V14.0516H53.2569C53.5877 14.0516 53.7923 14.2126 53.8707 14.5347L54.0535 15.9713ZM72.0001 13.8426C72.9664 13.8426 73.8371 14.0037 74.6119 14.3258C75.3868 14.6479 76.0484 15.105 76.5969 15.697C77.1454 16.289 77.5633 17.0073 77.8506 17.8518C78.1466 18.6876 78.2946 19.6235 78.2946 20.6596C78.2946 21.7043 78.1466 22.6446 77.8506 23.4804C77.5633 24.3162 77.1454 25.0301 76.5969 25.6221C76.0484 26.2141 75.3868 26.6712 74.6119 26.9933C73.8371 27.3068 72.9664 27.4635 72.0001 27.4635C71.025 27.4635 70.1456 27.3068 69.3621 26.9933C68.5872 26.6712 67.9255 26.2141 67.3771 25.6221C66.8286 25.0301 66.4063 24.3162 66.1103 23.4804C65.823 22.6446 65.6793 21.7043 65.6793 20.6596C65.6793 19.6235 65.823 18.6876 66.1103 17.8518C66.4063 17.0073 66.8286 16.289 67.3771 15.697C67.9255 15.105 68.5872 14.6479 69.3621 14.3258C70.1456 14.0037 71.025 13.8426 72.0001 13.8426ZM72.0001 25.6482C73.306 25.6482 74.2811 25.2129 74.9253 24.3423C75.5696 23.463 75.8917 22.2397 75.8917 20.6726C75.8917 19.0968 75.5696 17.8692 74.9253 16.9899C74.2811 16.1106 73.306 15.6709 72.0001 15.6709C71.3384 15.6709 70.7594 15.7841 70.2632 16.0105C69.7756 16.2368 69.3664 16.5633 69.0356 16.9899C68.7135 17.4165 68.4697 17.9432 68.3043 18.5701C68.1476 19.1882 68.0692 19.8891 68.0692 20.6726C68.0692 22.2397 68.3913 23.463 69.0356 24.3423C69.6886 25.2129 70.6767 25.6482 72.0001 25.6482ZM85.0749 27.4896C84.0301 27.4896 83.2248 27.1979 82.6589 26.6146C82.1017 26.0313 81.8231 25.1911 81.8231 24.0942V15.9974H80.2299C80.0906 15.9974 79.973 15.9582 79.8773 15.8799C79.7815 15.7928 79.7336 15.6622 79.7336 15.4881V14.5609L81.9015 14.2866L82.4369 10.1991C82.463 10.0685 82.5196 9.96399 82.6067 9.88563C82.7024 9.79857 82.8243 9.75504 82.9723 9.75504H84.1477V14.3127H87.974V15.9974H84.1477V23.9375C84.1477 24.4947 84.2826 24.9082 84.5525 25.1781C84.8224 25.448 85.1706 25.5829 85.5972 25.5829C85.841 25.5829 86.05 25.5525 86.2241 25.4915C86.4069 25.4219 86.5636 25.3479 86.6942 25.2695C86.8248 25.1911 86.9337 25.1215 87.0207 25.0606C87.1165 24.9909 87.1992 24.9561 87.2688 24.9561C87.3907 24.9561 87.4996 25.0301 87.5953 25.1781L88.2744 26.2881C87.8739 26.6625 87.3907 26.9585 86.8248 27.1762C86.2589 27.3851 85.6756 27.4896 85.0749 27.4896ZM99.152 19.223C99.152 18.6833 99.0736 18.1914 98.9169 17.7473C98.7689 17.2946 98.5469 16.9072 98.2509 16.5851C97.9636 16.2542 97.611 16.0017 97.1931 15.8276C96.7752 15.6448 96.3007 15.5534 95.7696 15.5534C94.6552 15.5534 93.7716 15.8799 93.1186 16.5328C92.4743 17.1771 92.0739 18.0738 91.9171 19.223H99.152ZM101.033 25.4262C100.745 25.7745 100.401 26.0792 100.001 26.3404C99.6004 26.5928 99.1694 26.8018 98.708 26.9672C98.2553 27.1326 97.7851 27.2545 97.2976 27.3329C96.81 27.4199 96.3268 27.4635 95.848 27.4635C94.9338 27.4635 94.0893 27.3111 93.3145 27.0064C92.5483 26.693 91.8823 26.2402 91.3164 25.6482C90.7592 25.0475 90.3239 24.3075 90.0105 23.4281C89.6971 22.5488 89.5403 21.5389 89.5403 20.3984C89.5403 19.4755 89.6796 18.6136 89.9582 17.8126C90.2455 17.0117 90.6547 16.3195 91.1858 15.7362C91.7169 15.1442 92.3655 14.6828 93.1317 14.3519C93.8978 14.0124 94.7597 13.8426 95.7174 13.8426C96.5097 13.8426 97.241 13.9776 97.9114 14.2474C98.5904 14.5086 99.1738 14.8917 99.6613 15.3967C100.158 15.8929 100.545 16.5111 100.824 17.2511C101.102 17.9824 101.241 18.8182 101.241 19.7585C101.241 20.1241 101.202 20.3679 101.124 20.4898C101.046 20.6117 100.898 20.6726 100.68 20.6726H91.8388C91.8649 21.5084 91.9781 22.2354 92.1783 22.8535C92.3873 23.4717 92.6746 23.9897 93.0402 24.4076C93.4059 24.8168 93.8412 25.1259 94.3462 25.3348C94.8511 25.535 95.417 25.6352 96.0439 25.6352C96.6272 25.6352 97.1278 25.5699 97.5457 25.4393C97.9723 25.3 98.338 25.152 98.6427 24.9953C98.9474 24.8385 99.1999 24.6949 99.4001 24.5643C99.6091 24.425 99.7876 24.3554 99.9356 24.3554C100.127 24.3554 100.275 24.4294 100.38 24.5774L101.033 25.4262ZM111.802 16.2325C111.697 16.424 111.536 16.5198 111.319 16.5198C111.188 16.5198 111.04 16.4719 110.875 16.3761C110.709 16.2803 110.505 16.1759 110.261 16.0627C110.026 15.9408 109.743 15.832 109.412 15.7362C109.081 15.6317 108.689 15.5795 108.237 15.5795C107.845 15.5795 107.492 15.6317 107.179 15.7362C106.865 15.832 106.595 15.9669 106.369 16.141C106.151 16.3152 105.982 16.5198 105.86 16.7548C105.747 16.9812 105.69 17.2293 105.69 17.4992C105.69 17.8388 105.786 18.1217 105.977 18.3481C106.178 18.5744 106.439 18.7703 106.761 18.9357C107.083 19.1012 107.449 19.2492 107.858 19.3798C108.267 19.5016 108.685 19.6366 109.112 19.7846C109.547 19.9239 109.969 20.0806 110.378 20.2547C110.788 20.4289 111.153 20.6465 111.475 20.9077C111.797 21.1689 112.054 21.491 112.246 21.8741C112.446 22.2485 112.546 22.7012 112.546 23.2323C112.546 23.8417 112.437 24.4076 112.22 24.93C112.002 25.4436 111.68 25.892 111.253 26.2751C110.827 26.6494 110.304 26.9455 109.686 27.1631C109.068 27.3808 108.354 27.4896 107.544 27.4896C106.622 27.4896 105.786 27.3416 105.037 27.0456C104.288 26.7409 103.653 26.3534 103.13 25.8833L103.679 24.9953C103.749 24.8821 103.831 24.795 103.927 24.7341C104.023 24.6731 104.145 24.6427 104.293 24.6427C104.449 24.6427 104.615 24.7036 104.789 24.8255C104.963 24.9474 105.172 25.0823 105.416 25.2303C105.668 25.3783 105.973 25.5133 106.33 25.6352C106.687 25.7571 107.131 25.818 107.662 25.818C108.115 25.818 108.511 25.7614 108.85 25.6482C109.19 25.5263 109.473 25.3653 109.699 25.165C109.926 24.9648 110.091 24.7341 110.195 24.4729C110.309 24.2117 110.365 23.9331 110.365 23.6371C110.365 23.2714 110.265 22.9711 110.065 22.736C109.873 22.4922 109.617 22.2876 109.294 22.1222C108.972 21.9481 108.602 21.8001 108.184 21.6782C107.775 21.5476 107.353 21.4127 106.918 21.2734C106.491 21.1341 106.069 20.9773 105.651 20.8032C105.242 20.6204 104.876 20.394 104.554 20.1241C104.232 19.8542 103.971 19.5234 103.77 19.1316C103.579 18.7311 103.483 18.2479 103.483 17.682C103.483 17.1771 103.587 16.6939 103.796 16.2325C104.005 15.7623 104.31 15.3531 104.711 15.0049C105.111 14.6479 105.603 14.365 106.186 14.156C106.77 13.9471 107.436 13.8426 108.184 13.8426C109.055 13.8426 109.834 13.9819 110.522 14.2605C111.218 14.5304 111.819 14.9048 112.324 15.3836L111.802 16.2325Z" fill="black"/>
<path d="M0 35.8334H118.622" stroke="#098041" stroke-width="2.72069"/>
<path fill-rule="evenodd" clip-rule="evenodd" d="M46.0523 0.417847C42.479 0.417847 39.5822 3.04622 39.5822 6.28832C39.5822 9.53042 42.479 12.1588 46.0523 12.1588C49.6256 12.1588 52.5224 9.53042 52.5224 6.28832C52.5224 3.04622 49.6256 0.417847 46.0523 0.417847ZM48.8568 5.29568C48.9084 5.24212 48.9478 5.17973 48.9724 5.11218C48.9971 5.04463 49.0066 4.97329 49.0005 4.90235C48.9943 4.8314 48.9726 4.7623 48.9365 4.69909C48.9005 4.63588 48.8509 4.57986 48.7907 4.5343C48.7304 4.48874 48.6607 4.45458 48.5857 4.43382C48.5107 4.41306 48.4318 4.40612 48.3538 4.41341C48.2758 4.42071 48.2002 4.44208 48.1314 4.47628C48.0626 4.51048 48.0021 4.55682 47.9533 4.61257L45.4241 7.36582L44.1154 6.17785C44.0044 6.08063 43.8559 6.02684 43.7016 6.02806C43.5474 6.02927 43.3999 6.0854 43.2908 6.18435C43.1818 6.2833 43.1199 6.41715 43.1186 6.55708C43.1172 6.69701 43.1765 6.83182 43.2837 6.93247L45.0482 8.53351C45.106 8.58592 45.1752 8.62682 45.2514 8.65362C45.3276 8.68042 45.4091 8.69252 45.4907 8.68916C45.5723 8.68579 45.6523 8.66704 45.7255 8.63408C45.7987 8.60113 45.8635 8.5547 45.9158 8.49775L48.8568 5.29568Z" fill="#098041"/>
</svg>
